<svg xmlns="http://www.w3.org/2000/svg" width="512" height="512" viewBox="263.5 157.4 455.2 455.2" role="img" aria-label="Nel">
  <!-- Favicon = simbolo isolado (a curva). O lockup nao sobrevive a 16px (§4).
       Quadrado com fundo pra manter contraste na aba; troca por tema via
       prefers-color-scheme (SVG favicon honra a media query em browsers atuais). -->
  <style>
    .bg { fill: #F2ECDD; }
    .fg { fill: #0A0A0A; }
    @media (prefers-color-scheme: dark) {
      .bg { fill: #1A1A1A; }
      .fg { fill: #F2ECDD; }
    }
  </style>
  <rect x="263.5" y="157.4" width="455.2" height="455.2" class="bg" />
  <path class="fg" d="M323.944 458.793C325.803 416.099 348.534 369.054 380.205 340.487C414.373 309.666 453.603 294.94 499.41 297.046C543.468 299.221 584.839 318.883 614.348 351.672C645.571 386.032 659.718 429.023 659.258 475.014C630.717 447.843 597.02 418.732 567.438 392.086L534.843 362.705C523.948 352.869 513.397 342.521 500.687 335.123C488.524 328.046 474.662 324.416 460.592 324.625C404.477 325.979 354.834 395.059 334.551 442.667C330.779 451.521 328.507 460.62 325.106 469.385C324.908 470.192 324.617 472.565 323.718 472.914C322.508 472.243 323.552 460.778 323.944 458.793Z" />
</svg>
